# xmcd CD database file
#
# Track frame offsets:
#	187
#	22677
#	41245
#	59352
#	78747
#	100747
#	118687
#	139175
#	154587
#	171110
#
# Disc length: 2610 seconds
#
# Revision: 0
# Processed by: cddbd v1.5PL3 Copyright (c) Steve Scherf et al.
# Submitted via: CDex 1.51
#
DISCID=7c0a300a
DTITLE=石川秀美 - ブランシュ
DYEAR=1986
DGENRE=JPop
TTITLE0=危ないボディ・ビート
TTITLE1=告白500マイル
TTITLE2=BANDAGE
TTITLE3=郷愁
TTITLE4=月の嫉妬(ジエラシー)
TTITLE5=野生の白
TTITLE6=クリスティーの恋
TTITLE7=スキャンダラス・アイズ
TTITLE8=Get Away
TTITLE9=冬場面
EXTD=YEAR: 1986
EXTT0=
EXTT1=
EXTT2=
EXTT3=
EXTT4=
EXTT5=
EXTT6=
EXTT7=
EXTT8=
EXTT9=
PLAYORDER=
